<?xml version="1.0" encoding="UTF-8"?>
<!DOCTYPE svg PUBLIC "-//W3C//DTD SVG 1.1//EN" "http://www.w3.org/Graphics/SVG/1.1/DTD/svg11.dtd">
<!-- Creator: CorelDRAW 2020 (64-Bit Evaluation Version) -->
<svg xmlns="http://www.w3.org/2000/svg" xml:space="preserve" width="210mm" height="297mm" version="1.1" style="shape-rendering:geometricPrecision; text-rendering:geometricPrecision; image-rendering:optimizeQuality; fill-rule:evenodd; clip-rule:evenodd"
viewBox="0 0 21000 29700"
 xmlns:xlink="http://www.w3.org/1999/xlink"
 xmlns:xodm="http://www.corel.com/coreldraw/odm/2003">
 <defs>
  <style type="text/css">
   <![CDATA[
    .fil0 {fill:#FEFEFE;fill-rule:nonzero}
   ]]>
  </style>
 </defs>
 <g id="Layer_x0020_1">
  <metadata id="CorelCorpID_0Corel-Layer"/>
  <path class="fil0" d="M8486 16466.38l1563.98 -2460.04 551.51 0 -2090.8 3086.8 -24.69 -626.76zm-303.39 -3893.5l496.24 0 0 5009.45 -496.24 0 0 -5009.45zm1099.49 3118.56l278.69 -469.19 1181.81 2360.08 -558.56 0 -901.94 -1890.89z"/>
  <path id="1" class="fil0" d="M11017.77 14006.34l496.24 0 0 5029.44 -496.24 0 0 -5029.44zm1258.24 3627.73c-195.2,0 -366.89,-54.09 -515.06,-163.45 -148.16,-109.36 -246.94,-258.71 -295.15,-450.38l48.21 -540.93c0,154.05 22.34,285.75 67.03,392.76 44.68,108.19 111.71,191.68 198.73,248.12 87.02,57.62 191.67,87.02 312.8,87.02 188.14,0 335.13,-65.85 439.79,-195.2 104.66,-129.36 156.4,-311.63 156.4,-545.63l0 -1371.13c0,-230.49 -51.74,-408.05 -156.4,-533.88 -104.66,-127 -251.65,-189.32 -439.79,-189.32 -121.13,0 -225.78,27.05 -312.8,82.32 -87.02,55.26 -154.05,136.4 -198.73,242.24 -44.69,107.01 -67.03,235.18 -67.03,384.52l-71.73 -482.13c70.55,-204.61 185.79,-364.53 345.72,-480.95 159.93,-115.24 333.96,-174.04 522.11,-174.04 181.09,0 336.32,44.69 464.49,135.23 129.35,89.37 226.96,219.9 292.81,390.41 67.03,171.69 99.95,378.65 99.95,622.07l0 1374.66c0,245.76 -34.1,456.26 -104.66,631.47 -70.55,176.39 -171.68,309.27 -304.56,399.81 -134.06,90.55 -293.98,136.41 -482.13,136.41z"/>
  <path id="2" class="fil0" d="M13856.46 14006.34l496.24 0 0 3575.99 -496.24 0 0 -3575.99zm1636.89 399.81c-4.71,0 -8.23,0 -11.76,0 -3.53,0 -8.23,0 -12.94,0 -335.14,0 -599.72,79.97 -794.92,238.72 -195.21,159.92 -302.22,384.52 -321.03,673.8l-71.73 -689.09c132.88,-215.2 304.56,-383.35 516.23,-504.47 211.67,-119.95 443.32,-181.1 696.15,-181.1 0,0 0,0 0,0 0,0 0,0 0,0l0 462.14z"/>
 </g>
</svg>
